<?xml version="1.0" encoding="utf-8"?>
<!-- Generator: Adobe Illustrator 26.3.1, SVG Export Plug-In . SVG Version: 6.00 Build 0)  -->
<svg version="1.1" xmlns="http://www.w3.org/2000/svg" xmlns:xlink="http://www.w3.org/1999/xlink" x="0px" y="0px"
	 viewBox="0 0 22 22" style="enable-background:new 0 0 22 22;" xml:space="preserve">
<style type="text/css">
	.st0{fill:none;stroke:#FFFFFF;stroke-width:3;stroke-linecap:round;stroke-linejoin:round;stroke-miterlimit:10;}
	.st1{stroke:#FFFFFF;stroke-width:3;stroke-miterlimit:10;}
	.st2{stroke:#FFFFFF;stroke-width:3;stroke-linecap:round;stroke-linejoin:round;stroke-miterlimit:10;}
	.st3{fill:none;}
	.st4{clip-path:url(#SVGID_00000109017132282336459390000000208962144680374708_);fill:none;stroke:#FFC700;stroke-width:1.328;}
	.st5{clip-path:url(#SVGID_00000079468747251987386740000001094497042381076099_);fill:none;stroke:#FFC900;stroke-width:0.828;}
	.st6{fill:#FFC700;}
	.st7{fill:#FFC900;}
	.st8{fill:#FF0000;}
	.st9{fill:none;stroke:#FFFF00;stroke-width:4;stroke-miterlimit:10;}
	.st10{fill:none;stroke:#FFFF00;stroke-width:5;stroke-miterlimit:10;}
	.st11{fill:none;stroke:#FFFF00;stroke-width:5;stroke-linecap:round;stroke-miterlimit:10;}
	.st12{fill:#FFFF00;}
	.st13{fill:#FFFFFF;}
	.st14{fill:none;stroke:#FFC900;stroke-width:0.649;}
	.st15{fill:#1D1D1B;}
	.st16{fill:none;stroke:#FFFFFF;stroke-width:3;stroke-linecap:round;stroke-linejoin:round;}
	.st17{fill:none;stroke:#FFFFFF;stroke-width:3;}
	.st18{fill:none;stroke:#000000;stroke-width:6;stroke-miterlimit:10;}
	.st19{clip-path:url(#SVGID_00000081627648837515830970000018293416187932388737_);fill:#FFCA00;}
	.st20{clip-path:url(#SVGID_00000172427551092994912480000008851001608171461802_);fill:none;stroke:#2B2B2A;stroke-width:0.359;}
	.st21{fill:#2B2B2A;}
	.st22{clip-path:url(#SVGID_00000041988340764718277080000013455199915948368542_);fill:#FFCA00;}
	.st23{clip-path:url(#SVGID_00000041988340764718277080000013455199915948368542_);fill:none;stroke:#FFCA00;stroke-width:2.42;}
	.st24{fill:#FFCA00;}
	.st25{stroke:#000000;stroke-miterlimit:10;}
	.st26{stroke:#FFFFFF;stroke-width:0.5;stroke-miterlimit:10;}
	.st27{stroke:#FFFFFF;stroke-width:0.75;stroke-miterlimit:10;}
	.st28{stroke:#000000;stroke-width:2.25;stroke-miterlimit:10;}
	.st29{clip-path:url(#SVGID_00000154425862154941042610000009489409681447937442_);}
	.st30{clip-path:url(#SVGID_00000150796195964033765930000002416296229689819059_);}
	
		.st31{clip-path:url(#SVGID_00000052811249110615220600000008057773808530272137_);fill:none;stroke:#000000;stroke-width:1.229;stroke-linecap:round;}
	.st32{fill:#BE1E00;}
	.st33{fill:#FFCB00;}
	.st34{enable-background:new    ;}
	.st35{clip-path:url(#SVGID_00000073003165610337070420000017435759375219743875_);}
	.st36{clip-path:url(#SVGID_00000101811202222098265800000002015097103295936697_);}
	.st37{clip-path:url(#SVGID_00000068644845041384832440000010026616709212413350_);}
	.st38{clip-path:url(#SVGID_00000124145767915369327060000004469020500209444254_);}
	.st39{fill:none;stroke:#707070;}
	.st40{fill:#1E1E1E;}
	.st41{clip-path:url(#SVGID_00000174567588021176205180000013351727631823567528_);}
	.st42{clip-path:url(#SVGID_00000005262782715546724910000006674186928042885279_);}
	.st43{fill:none;stroke:#FFFFFF;stroke-width:2;stroke-linecap:round;stroke-linejoin:round;}
	.st44{fill:none;stroke:#FFFFFF;stroke-width:2;}
	.st45{clip-path:url(#SVGID_00000085248548431831521780000018064139205571062185_);}
	.st46{fill:none;stroke:#FFFFFF;stroke-width:2;stroke-linecap:round;}
	.st47{fill:#3C3C3C;}
	.st48{fill:none;stroke:#FFFFFF;stroke-width:3;stroke-linecap:round;}
	.st49{fill:#282828;}
	.st50{fill:none;stroke:#FFFF00;stroke-width:2.1;stroke-linecap:round;stroke-miterlimit:10;}
	.st51{fill:none;stroke:#FF0000;stroke-width:2.9;stroke-miterlimit:10;}
	.st52{fill:none;stroke:#FF0000;stroke-width:2.9;stroke-linecap:round;stroke-miterlimit:10;}
	.st53{fill:none;stroke:#FFFFFF;stroke-width:1.5;}
	.st54{stroke:#FFFFFF;stroke-width:3;stroke-linecap:round;stroke-miterlimit:10;}
	.st55{fill:#FFFFFF;stroke:#FFFFFF;stroke-width:3;stroke-miterlimit:10;}
	.st56{fill:none;stroke:#FFFFFF;stroke-width:3.5;stroke-linecap:round;stroke-linejoin:round;}
	.st57{fill:none;stroke:#FFFFFF;stroke-width:3.5;stroke-linecap:round;}
	.st58{stroke:#FFFFFF;stroke-width:3.5;stroke-miterlimit:10;}
	.st59{stroke:#FFFFFF;stroke-width:3.5;stroke-linecap:round;stroke-miterlimit:10;}
	.st60{fill:none;stroke:#FFFFFF;stroke-width:4;stroke-linecap:round;stroke-linejoin:round;}
	.st61{fill:none;stroke:#FFFFFF;stroke-width:4;stroke-linecap:round;}
	.st62{stroke:#FFFFFF;stroke-width:4;stroke-miterlimit:10;}
	.st63{stroke:#FFFFFF;stroke-width:4;stroke-linecap:round;stroke-miterlimit:10;}
	.st64{fill:none;stroke:#FFFFFF;stroke-width:3;stroke-linecap:round;stroke-miterlimit:10;}
	.st65{fill:none;stroke:#FF0F01;stroke-width:3;stroke-linecap:round;stroke-miterlimit:10;}
	.st66{fill:#030000;}
	.st67{stroke:#D65B00;stroke-width:3;stroke-linecap:round;stroke-linejoin:round;stroke-miterlimit:10;}
	.st68{fill:none;stroke:#FF800C;stroke-width:3;stroke-miterlimit:10;}
	.st69{fill:none;stroke:#FF800C;stroke-width:3;stroke-linecap:round;stroke-linejoin:round;stroke-miterlimit:10;}
	.st70{fill:#FF800C;}
	.st71{fill:#FFBA5A;}
	.st72{fill:none;stroke:#FF0000;stroke-width:3;stroke-linecap:round;stroke-miterlimit:10;}
	.st73{stroke:#FFFFFF;stroke-miterlimit:10;}
	.st74{fill:none;stroke:#FFFFFF;stroke-width:3.5;stroke-linecap:round;stroke-miterlimit:10;}
	.st75{fill:none;stroke:#FFFFFF;stroke-width:4;stroke-linecap:round;stroke-miterlimit:10;}
	.st76{fill:none;stroke:#FF0000;stroke-width:3;stroke-linecap:round;stroke-linejoin:round;stroke-miterlimit:10;}
	
		.st77{clip-path:url(#SVGID_00000055689108394461611230000008452662514837604766_);fill:none;stroke:#FFFFFF;stroke-width:3;stroke-linecap:round;stroke-miterlimit:10;}
	
		.st78{clip-path:url(#SVGID_00000052103547443052817250000000612882378829323913_);fill:none;stroke:#FFFFFF;stroke-width:3;stroke-linecap:round;stroke-miterlimit:10;}
</style>
<g id="background">
</g>
<g id="Ebene_1">
	<rect class="st3" width="22" height="22"/>
	<path class="st33" d="M14.3,21.9L14,21.7c-2.7-2.3-4.9-4.9-6.7-7.9c-1-1.6-1.9-3.2-2.8-4.8C3.6,7.4,2.9,5.7,2.4,3.9L2.3,3.5
		l0.2-0.3c0.7-1.2,1.6-2.2,2.8-2.9l0.3-0.1c0.7-0.1,1.4-0.2,2-0.1H8l2.6,4.8L9.4,7.7c0,0.7,0.2,1.4,0.4,2c0.4,0.7,0.8,1.4,1.3,2.1
		c0.5,0.9,1.1,1.5,1.9,1.9c1,0.1,2,0.2,3,0.1l0.4,0l3.3,4.3l-0.2,0.4c-0.2,0.4-0.5,1-0.9,1.7l-0.2,0.3c-1.1,0.7-2.5,1.2-3.8,1.3
		L14.3,21.9z M3.9,3.8c0.5,1.6,1.1,3.1,1.9,4.5c0.8,1.6,1.7,3.2,2.7,4.7c1.7,2.8,3.7,5.2,6.1,7.3c0.9-0.1,1.9-0.5,2.7-1
		c0.2-0.4,0.4-0.8,0.6-1l-2.3-3c-1,0.1-2,0-3-0.2l-0.1,0c-1.2-0.5-2.1-1.4-2.7-2.6c-0.5-0.7-0.9-1.5-1.3-2.3C8,9.4,7.9,8.5,7.9,7.5
		l0.1-0.3l1-2.2L7.1,1.6c-0.4,0-0.8,0-1.2,0.1C5.1,2.3,4.5,3,3.9,3.8z M3.4,3.7C3.4,3.7,3.4,3.7,3.4,3.7L3.4,3.7L3.4,3.7z"/>
</g>
<g id="Ebene_2">
</g>
<g id="Ebene_4">
</g>
<g id="Ebene_5">
</g>
</svg>
